<?xml version="1.0" encoding="utf-8"?>
<!-- Generator: Adobe Illustrator 25.0.1, SVG Export Plug-In . SVG Version: 6.00 Build 0)  -->
<svg version="1.1" id="Layer_1" xmlns="http://www.w3.org/2000/svg" xmlns:xlink="http://www.w3.org/1999/xlink" x="0px" y="0px"
	 viewBox="0 0 430 430" style="enable-background:new 0 0 430 430;" xml:space="preserve">
<style type="text/css">
	.st0{fill:#121331;}
	.st1{fill:none;stroke:#121331;stroke-width:12;stroke-linecap:round;stroke-linejoin:round;stroke-miterlimit:10;}
	.st2{fill:#08A88A;}
	.st3{fill:none;stroke:#08A88A;stroke-width:12;stroke-linecap:round;stroke-linejoin:round;stroke-miterlimit:10;}
</style>
<g>
	<path class="st0" d="M196.82,232.49h-1.44c-35.83,0-64.98-29.15-64.98-64.98v-28.93c0-3.31,2.69-6,6-6s6,2.69,6,6v28.93
		c0,29.21,23.77,52.98,52.98,52.98h1.44c29.21,0,52.98-23.77,52.98-52.98v-32.36c0-3.31,2.69-6,6-6s6,2.69,6,6v32.36
		C261.8,203.34,232.65,232.49,196.82,232.49z"/>
	<path class="st1" d="M163.76,217.3"/>
	<path class="st1" d="M227.11,236.81"/>
	<path class="st0" d="M220.52,379.97h-50.16c-9.26,0-15.18-3-21.45-6.18c-7.81-3.96-16.66-8.45-36.39-10.02H94.04
		c-11.45,0-20.76-9.31-20.76-20.76v-30.36c0-45.13,36.71-81.84,81.84-81.84h2.64v-13.5c0-3.31,2.69-6,6-6c0,0,0,0,0,0
		c3.31,0,6,2.68,6,6l0.01,19.39c0,0.02,0,0.04,0,0.05c0,0,0,0.01,0,0.01c0.22,13.26,11.19,24.05,24.47,24.05h2.4
		c13.28,0,24.25-10.79,24.47-24.05l0,0c0-0.01,0-0.03,0-0.04l0.01-18.6c0-3.31,2.69-6,6-6c0,0,0,0,0,0c3.31,0,6,2.69,6,6v12.69h5.04
		c19.86,0,39.02,7.21,53.95,20.3c2.49,2.19,2.74,5.98,0.55,8.47c-2.18,2.49-5.98,2.74-8.47,0.55
		c-12.74-11.17-29.08-17.32-46.03-17.32h-5.63c-3.08,17-18.1,30-35.89,30h-2.4c-17.8,0-32.81-13-35.89-30h-3.23
		c-38.51,0-69.84,31.33-69.84,69.84v30.36c0,4.83,3.93,8.76,8.76,8.76h18.72c0.16,0,0.31,0.01,0.46,0.02
		c22.26,1.73,33.16,7.26,41.12,11.3c5.8,2.94,9.63,4.89,16.02,4.89h50.13c0.11-0.01,0.23-0.01,0.34-0.01
		c6.39,0,10.23-1.94,16.04-4.88l1.34-0.68c2.96-1.49,6.57-0.29,8.05,2.67c1.49,2.96,0.29,6.57-2.67,8.05l-1.31,0.66
		c-6.23,3.15-12.12,6.13-21.26,6.17C220.86,379.97,220.69,379.97,220.52,379.97z M220.41,367.97c-0.05,0-0.11,0.01-0.16,0.01
		C220.3,367.98,220.35,367.98,220.41,367.97z"/>
	<path class="st2" d="M132.64,145.4c-2.52,0-4.84-1.6-5.68-4.07c-0.27-0.79-6.63-19.69-9.08-41.21
		c-3.48-30.63,2.62-50.67,18.14-59.56c5.51-3.15,13.74-2.92,19.14,0.54c3.92,2.51,7.64,5.95,10.62,8.71
		c1.07,0.99,2.09,1.93,2.88,2.61c1.21,1.03,2.7,1.55,4.22,1.48c2.06-0.1,7.48-0.68,13.34-3.82c0.18-0.09,0.36-0.18,0.54-0.26
		c22.45-9.29,53.89-1.69,55.22-1.36c0.33,0.08,0.65,0.19,0.96,0.33c1.02,0.44,24.93,11.18,25.56,36.67
		c0.07,2.77,0.15,5.48,0.23,8.14c0.74,24.78,1.28,42.68-9.74,49.65c-1.91,1.2-4.33,1.24-6.27,0.08c-1.93-1.15-3.06-3.29-2.92-5.53
		c0.08-1.35,1.42-30.87-27.64-49.54c-6.81,13.96-28.23,44.58-88.31,57.02C133.45,145.36,133.04,145.4,132.64,145.4z M145.01,50.34
		c-1.15,0-2.28,0.21-3.02,0.63c-20.91,11.97-12.02,58.78-5.29,81.38c33.24-7.84,52.14-21.68,62.26-32.16
		c11.44-11.85,14.42-22.08,14.45-22.18c0.49-1.74,1.74-3.18,3.4-3.9c1.66-0.72,3.55-0.67,5.16,0.17
		c20.11,10.49,30.12,25.22,35.07,37.95c0.08-5.82-0.11-12.2-0.3-18.28c-0.08-2.67-0.16-5.41-0.23-8.2
		c-0.4-16.36-15.21-24.42-17.94-25.77c-4.02-0.9-29.6-6.2-46.96,0.82c-7.62,4.01-14.62,4.91-18.14,5.08
		c-4.58,0.23-9.05-1.31-12.59-4.33c-0.98-0.84-2.08-1.86-3.25-2.94c-2.64-2.44-5.92-5.48-8.94-7.41
		C147.81,50.64,146.38,50.34,145.01,50.34z"/>
	<path class="st3" d="M136.4,138.58"/>
	<path class="st3" d="M255.8,138.17"/>
</g>
<path class="st2" d="M285.68,391.65c-39.17,0-71.04-31.87-71.04-71.04s31.87-71.04,71.04-71.04s71.04,31.87,71.04,71.04
	S324.85,391.65,285.68,391.65z M285.68,261.57c-32.55,0-59.04,26.49-59.04,59.04s26.49,59.04,59.04,59.04s59.04-26.49,59.04-59.04
	S318.23,261.57,285.68,261.57z"/>
<path class="st2" d="M269,356.6c-1.54,0-3.07-0.59-4.24-1.76l-19.92-19.92c-2.34-2.34-2.34-6.14,0-8.48c2.34-2.34,6.14-2.34,8.48,0
	L269,342.11l43.52-43.52c2.34-2.34,6.14-2.34,8.48,0c2.34,2.34,2.34,6.14,0,8.48l-47.76,47.76C272.07,356.01,270.54,356.6,269,356.6
	z"/>
</svg>
