<?xml version="1.0" encoding="utf-8"?>
<!-- Generator: Adobe Illustrator 25.0.1, SVG Export Plug-In . SVG Version: 6.00 Build 0)  -->
<svg version="1.1" id="Layer_1" xmlns="http://www.w3.org/2000/svg" xmlns:xlink="http://www.w3.org/1999/xlink" x="0px" y="0px"
	 viewBox="0 0 430 430" style="enable-background:new 0 0 430 430;" xml:space="preserve">
<style type="text/css">
	.st0{fill:#121331;}
	.st1{fill:#08A88A;}
</style>
<path class="st0" d="M280.9,313.7H68.5c-3.3,0-6-2.7-6-6v-104c0-48.2,39.2-87.4,87.4-87.4h131c47.8,0,86.6,38.9,86.6,86.6v24.1
	C367.5,274.8,328.6,313.7,280.9,313.7z M74.5,301.7h206.4c41.2,0,74.6-33.5,74.6-74.6v-24.1c0-41.2-33.5-74.6-74.6-74.6h-131
	c-41.6,0-75.4,33.8-75.4,75.4V301.7z"/>
<path class="st1" d="M214,262.7c-1.5,0-3-0.5-4.1-1.7c-2.4-2.3-2.5-6.1-0.2-8.5c0.1-0.1,0.2-0.2,0.3-0.3l35-35
	c0.1-0.1,0.1-0.2,0.2-0.2c3.5-3.6,5.5-8.3,5.5-13.4c0-5.1-2-9.9-5.6-13.5c-7.4-7.4-19.4-7.4-26.9-0.1c-2.4,2.3-6.2,2.3-8.5-0.1
	c-2.3-2.4-2.3-6.2,0.1-8.5c12.1-11.9,31.7-11.8,43.8,0.2c5.9,5.9,9.1,13.7,9.1,22c0,8.1-3.1,15.7-8.7,21.6c-0.2,0.2-0.3,0.4-0.4,0.5
	l-35.3,35.3C217.1,262.1,215.6,262.7,214,262.7z M244.9,217.4c-0.1,0.1-0.2,0.2-0.2,0.3C244.7,217.6,244.8,217.5,244.9,217.4z
	 M245.1,217.1C245.1,217.2,245.1,217.2,245.1,217.1L245.1,217.1z"/>
<path class="st1" d="M214,262.7c-1.6,0-3.1-0.6-4.3-1.7l-35.3-35.3c-5.9-5.9-9.1-13.7-9.1-22s3.2-16.1,9.1-22
	c12-12,31.6-12.1,43.7-0.2c2.4,2.3,2.4,6.1,0.1,8.5c-2.3,2.4-6.1,2.4-8.5,0.1c-7.4-7.3-19.5-7.2-26.9,0.1c-3.6,3.6-5.6,8.4-5.6,13.5
	s2,9.9,5.6,13.5l31,31l31.3-31.3c2.3-2.3,6.1-2.3,8.5,0c2.3,2.3,2.3,6.1,0,8.5l-35.5,35.5C217.1,262,215.6,262.7,214,262.7
	C214,262.7,214,262.7,214,262.7z"/>
</svg>
