<?xml version="1.0" encoding="utf-8"?>
<!-- Generator: Adobe Illustrator 24.1.2, SVG Export Plug-In . SVG Version: 6.00 Build 0)  -->
<svg version="1.1" id="Warstwa_3" xmlns="http://www.w3.org/2000/svg" xmlns:xlink="http://www.w3.org/1999/xlink" x="0px" y="0px"
	 viewBox="0 0 430 430" style="enable-background:new 0 0 430 430;" xml:space="preserve">
<style type="text/css">
	.st0{fill:#121331;}
	.st1{fill:#08A789;}
	.st2{fill:#08A88A;}
	.st3{fill:none;stroke:#08A789;stroke-width:12;stroke-linecap:round;stroke-linejoin:round;stroke-miterlimit:10;}
</style>
<g>
	<path class="st0" d="M340.54,129.2h-92.37c-3.31,0-6-2.69-6-6V75.48c0-29.62,24.1-53.72,53.72-53.72h44.65
		c29.62,0,53.72,24.1,53.72,53.72S370.16,129.2,340.54,129.2z M254.17,117.2h86.37c23,0,41.72-18.72,41.72-41.72
		s-18.72-41.72-41.72-41.72h-44.65c-23,0-41.72,18.72-41.72,41.72V117.2z"/>
	<g>
		<path class="st0" d="M233.35,285.65v-5.48c11.64-9.22,18.81-23.25,19.33-38.15l0.96-27.32c0.12-3.31-2.47-6.09-5.79-6.21
			c-3.34-0.14-6.09,2.47-6.21,5.79l-0.96,27.32c-0.42,12.21-6.68,23.66-16.75,30.62c-6.51,4.5-14.14,6.88-22.08,6.88
			c-10.12,0-19.71-3.87-26.99-10.91c-7.28-7.03-11.49-16.48-11.84-26.59l-1.04-29.99l-0.01-0.19c-0.17-3.31-3.01-5.86-6.3-5.68
			c-3.31,0.17-5.85,2.99-5.68,6.3l1.05,29.98c0.46,13.24,5.96,25.6,15.5,34.81c1.23,1.19,2.51,2.3,3.84,3.35v5.47
			c-37.63,0.14-68.2,30.79-68.2,68.45v20.89c0,8.78,6.58,16.16,15.31,17.17l20.71,2.39c5.7,0.66,11.25,2.1,16.57,4.32l0.07,0.03
			c14.91,6.2,30.65,9.34,46.79,9.34c16.23,0,32.04-3.17,47.01-9.43c5.04-2.11,10.34-3.49,15.75-4.12l21.85-2.53
			c8.72-1.01,15.3-8.39,15.3-17.17V354.1C301.54,316.44,270.97,285.79,233.35,285.65z M201.86,291.1c6.76,0,13.36-1.33,19.49-3.88
			v4.19c0,10.74-8.75,19.49-19.49,19.49c-10.75,0-19.49-8.74-19.49-19.49v-4.18C188.48,289.76,195.08,291.1,201.86,291.1z
			 M289.54,374.99c0,2.68-2.01,4.94-4.68,5.25l-21.85,2.53c-6.52,0.75-12.92,2.42-19,4.96c-13.5,5.64-27.76,8.51-42.38,8.51
			c-14.55,0-28.75-2.83-42.26-8.45l-0.07-0.03c-6.28-2.62-12.92-4.35-19.73-5.13l-20.71-2.39c-2.67-0.31-4.69-2.57-4.69-5.25V354.1
			c0-31.13,25.33-56.46,56.46-56.46h0.36c2.9,14.39,15.64,25.26,30.86,25.26c15.23,0,27.97-10.87,30.87-25.26h0.36
			c31.13,0,56.45,25.33,56.45,56.46V374.99z"/>
		<path class="st2" d="M247.64,220.5c-0.34,0-0.68-0.03-1.01-0.09c-2.24-0.38-4.08-2.01-4.73-4.18c-0.9-2.99-1.57-5.97-2.22-8.86
			c-2.35-10.4-4.58-20.29-17.65-31.39c-13.37,24.91-37.95,40.77-65.78,41.93c-2.34,0.1-4.4-1.14-5.47-3.04
			c-3.7-4.43-16.97-22.29-13.35-46.36c2.05-13.66,7.55-23.2,10.65-27.67c2.47-3.56,6.19-5.91,10.47-6.61
			c4.26-0.7,8.5,0.33,11.97,2.9l11.9,8.49c1.33,0.95,3.1,1.12,4.61,0.44c9.19-4.12,27.29-10.38,45.36-6
			c0.05,0.01,0.11,0.03,0.16,0.04c0.56,0.15,13.79,3.86,21.26,15.3c8.45,12.95,11.63,44.96-1.31,62.63
			C251.34,219.6,249.53,220.5,247.64,220.5z M161.09,146.03c-0.21,0-0.42,0.02-0.63,0.05c-1.04,0.17-1.94,0.74-2.54,1.6
			c-4.26,6.15-7.41,14.39-8.64,22.62c-2.55,16.99,5.88,30.47,9.56,35.42c24.67-2.14,45.26-17.43,55.46-41.38
			c0.71-1.67,2.14-2.93,3.89-3.42c1.75-0.49,3.63-0.17,5.11,0.89c16.03,11.42,22.08,22.27,25.31,32.29
			c1.49-12.24-0.82-25.9-4.88-32.13c-4.73-7.25-13.56-10.04-14.31-10.27c-14.55-3.48-29.74,1.83-37.51,5.31
			c-5.38,2.42-11.7,1.79-16.49-1.62l-11.95-8.53c-0.03-0.02-0.07-0.05-0.1-0.08C162.71,146.29,161.91,146.03,161.09,146.03z"/>
	</g>
	<path class="st0" d="M109.27,208.26c0.01-0.02,0.02-0.04,0.04-0.06c0.2-0.31,0.37-0.63,0.51-0.97c0.01-0.03,0.02-0.05,0.03-0.08
		c0.13-0.33,0.24-0.68,0.31-1.04c0-0.02,0.01-0.04,0.01-0.06c0.07-0.36,0.11-0.72,0.11-1.1c0,0,0,0,0-0.01
		c0-0.38-0.04-0.74-0.11-1.1c0-0.02-0.01-0.04-0.01-0.06c-0.07-0.36-0.18-0.7-0.31-1.03c-0.01-0.03-0.02-0.06-0.03-0.09
		c-0.14-0.34-0.31-0.66-0.51-0.96c-0.02-0.02-0.03-0.05-0.05-0.07c-0.22-0.33-0.47-0.63-0.75-0.91c0,0,0-0.01-0.01-0.01
		l-18.33-18.33c-2.34-2.34-6.14-2.34-8.49,0c-2.34,2.34-2.34,6.14,0,8.49l8.09,8.09H41.74c-3.31,0-6,2.69-6,6s2.69,6,6,6h48.05
		l-8.09,8.09c-2.34,2.34-2.34,6.14,0,8.49c1.17,1.17,2.71,1.76,4.24,1.76s3.07-0.59,4.24-1.76l18.33-18.33
		C108.8,208.9,109.05,208.59,109.27,208.26z"/>
	<path class="st0" d="M360.28,198.94h-48.05l8.09-8.09c2.34-2.34,2.34-6.14,0-8.49c-2.34-2.34-6.14-2.34-8.49,0l-18.33,18.33
		c-0.14,0.14-0.27,0.28-0.4,0.44c-0.03,0.04-0.06,0.08-0.09,0.13c-0.09,0.11-0.18,0.23-0.26,0.35c-0.03,0.04-0.05,0.09-0.08,0.13
		c-0.08,0.12-0.16,0.25-0.22,0.38c-0.02,0.03-0.03,0.07-0.05,0.1c-0.07,0.14-0.14,0.28-0.2,0.43c-0.01,0.02-0.02,0.05-0.03,0.07
		c-0.06,0.16-0.12,0.31-0.17,0.48c-0.01,0.03-0.01,0.05-0.02,0.08c-0.05,0.16-0.09,0.32-0.12,0.49c-0.01,0.05-0.01,0.1-0.02,0.15
		c-0.02,0.14-0.05,0.28-0.06,0.43c-0.02,0.2-0.03,0.4-0.03,0.6s0.01,0.4,0.03,0.6c0.01,0.15,0.04,0.29,0.06,0.43
		c0.01,0.05,0.01,0.1,0.02,0.15c0.03,0.17,0.08,0.33,0.12,0.49c0.01,0.03,0.01,0.05,0.02,0.08c0.05,0.16,0.11,0.32,0.17,0.48
		c0.01,0.02,0.02,0.05,0.03,0.07c0.06,0.15,0.13,0.29,0.2,0.43c0.02,0.03,0.03,0.07,0.05,0.1c0.07,0.13,0.15,0.25,0.22,0.38
		c0.03,0.04,0.05,0.09,0.08,0.13c0.08,0.12,0.17,0.23,0.26,0.35c0.03,0.04,0.06,0.09,0.09,0.13c0.13,0.15,0.26,0.3,0.4,0.44
		l18.33,18.33c1.17,1.17,2.71,1.76,4.24,1.76s3.07-0.59,4.24-1.76c2.34-2.34,2.34-6.14,0-8.49l-8.09-8.09h48.05c3.31,0,6-2.69,6-6
		S363.59,198.94,360.28,198.94z"/>
	<path class="st0" d="M224.43,82.63c-2.34-2.34-6.14-2.34-8.49,0l-8.09,8.09V42.66c0-3.31-2.69-6-6-6s-6,2.69-6,6v48.05l-8.08-8.09
		c-2.34-2.34-6.14-2.34-8.49,0c-2.34,2.34-2.34,6.14,0,8.49l18.33,18.33c0.06,0.06,0.12,0.11,0.18,0.16
		c0.08,0.08,0.17,0.16,0.26,0.23c0.05,0.04,0.11,0.08,0.16,0.12c0.1,0.08,0.2,0.16,0.31,0.23c0.04,0.03,0.09,0.05,0.13,0.08
		c0.12,0.08,0.25,0.16,0.38,0.22c0.03,0.02,0.06,0.03,0.09,0.04c0.14,0.07,0.29,0.15,0.44,0.21c0.02,0.01,0.04,0.01,0.06,0.02
		c0.16,0.06,0.32,0.12,0.49,0.18c0.02,0.01,0.04,0.01,0.06,0.02c0.17,0.05,0.33,0.09,0.5,0.13c0.05,0.01,0.1,0.01,0.15,0.02
		c0.14,0.03,0.29,0.05,0.43,0.06c0.2,0.02,0.4,0.03,0.6,0.03c0.2,0,0.4-0.01,0.6-0.03c0.15-0.02,0.3-0.04,0.45-0.07
		c0.04-0.01,0.09-0.01,0.13-0.02c0.18-0.04,0.35-0.08,0.52-0.13c0.01,0,0.03-0.01,0.04-0.01c0.18-0.05,0.35-0.12,0.51-0.18
		c0.01,0,0.02-0.01,0.04-0.01c0.16-0.07,0.31-0.14,0.47-0.22c0.02-0.01,0.04-0.02,0.06-0.03c0.14-0.08,0.28-0.16,0.41-0.25
		c0.03-0.02,0.06-0.04,0.09-0.06c0.13-0.09,0.25-0.18,0.38-0.28c0.03-0.02,0.06-0.05,0.09-0.07c0.15-0.13,0.3-0.26,0.44-0.4
		l18.33-18.33C226.77,88.77,226.77,84.97,224.43,82.63z"/>
	<path class="st1" d="M336.74,48.81c-6.33-2.61-13.26-1.3-18.52,3.02c-5.26-4.32-12.19-5.63-18.52-3.02
		c-4.61,1.67-12.74,7.73-12,19.43c0.87,13.77,16.73,29.69,27.48,35.56c0.01,0,0.01,0.01,0.02,0.01c0.06,0.03,0.12,0.07,0.18,0.1
		c0.09,0.05,0.18,0.08,0.27,0.13c0.11,0.05,0.22,0.11,0.33,0.15c0.15,0.06,0.3,0.11,0.45,0.16c0.09,0.03,0.18,0.06,0.27,0.08
		c0.19,0.05,0.38,0.08,0.57,0.11c0.06,0.01,0.12,0.03,0.18,0.03c0.25,0.03,0.51,0.05,0.76,0.05c0,0,0,0,0,0s0,0,0,0
		c0.25,0,0.51-0.02,0.77-0.05c0.06-0.01,0.11-0.02,0.17-0.03c0.2-0.03,0.39-0.07,0.59-0.12c0.08-0.02,0.16-0.05,0.25-0.08
		c0.16-0.05,0.32-0.1,0.47-0.16c0.11-0.04,0.21-0.09,0.31-0.14c0.09-0.04,0.19-0.08,0.29-0.13c0.06-0.03,0.12-0.07,0.19-0.1
		c0,0,0.01,0,0.01-0.01c10.75-5.87,26.61-21.79,27.48-35.56C349.48,56.53,341.35,50.47,336.74,48.81z M336.76,67.47
		c-0.41,6.54-9.46,18.06-18.55,24.14c-9.08-6.09-18.13-17.6-18.55-24.14c-0.33-5.16,3.01-6.95,4.15-7.4
		c0.18-0.05,0.19-0.07,0.39-0.15c4.17-1.78,7.47,1.7,8.76,4.04c0.02,0.04,0.05,0.08,0.08,0.13c0.06,0.11,0.13,0.22,0.2,0.32
		c0.04,0.07,0.09,0.13,0.14,0.19c0.07,0.09,0.14,0.19,0.21,0.28c0.06,0.07,0.11,0.13,0.17,0.2c0.07,0.08,0.14,0.16,0.22,0.23
		c0.07,0.07,0.14,0.14,0.21,0.2c0.07,0.06,0.14,0.13,0.22,0.19c0.09,0.07,0.17,0.14,0.26,0.2c0.07,0.05,0.14,0.1,0.21,0.15
		c0.1,0.07,0.2,0.13,0.31,0.19c0.05,0.03,0.09,0.06,0.14,0.08c0.02,0.01,0.05,0.02,0.07,0.03c0.1,0.06,0.21,0.11,0.32,0.15
		c0.08,0.04,0.15,0.07,0.23,0.1c0.1,0.04,0.19,0.07,0.29,0.11c0.09,0.03,0.18,0.07,0.27,0.09c0.09,0.03,0.18,0.05,0.27,0.07
		c0.1,0.03,0.2,0.05,0.3,0.07c0.09,0.02,0.18,0.03,0.28,0.04c0.1,0.01,0.19,0.03,0.29,0.04c0.11,0.01,0.23,0.01,0.34,0.02
		c0.08,0,0.15,0.01,0.23,0.01c0.14,0,0.27-0.01,0.41-0.02c0.05,0,0.1,0,0.16-0.01c0.14-0.01,0.29-0.04,0.43-0.06
		c0.05-0.01,0.09-0.01,0.14-0.02c0.13-0.03,0.26-0.06,0.39-0.09c0.06-0.02,0.12-0.03,0.18-0.05c0.11-0.03,0.21-0.07,0.32-0.11
		c0.08-0.03,0.17-0.06,0.25-0.09c0.08-0.03,0.16-0.07,0.24-0.11c0.11-0.05,0.21-0.1,0.32-0.15c0.02-0.01,0.04-0.02,0.07-0.03
		c0.04-0.02,0.08-0.05,0.13-0.08c0.11-0.06,0.22-0.13,0.32-0.2c0.06-0.04,0.13-0.09,0.19-0.13c0.1-0.07,0.19-0.14,0.28-0.22
		c0.07-0.06,0.13-0.11,0.2-0.17c0.08-0.07,0.16-0.14,0.23-0.22c0.07-0.07,0.14-0.14,0.2-0.22c0.06-0.07,0.12-0.14,0.18-0.21
		c0.07-0.09,0.14-0.18,0.2-0.27c0.05-0.07,0.1-0.13,0.14-0.2c0.07-0.1,0.13-0.21,0.2-0.32c0.03-0.04,0.06-0.08,0.08-0.13
		c1.29-2.34,4.58-5.81,8.76-4.04c0.2,0.08,0.21,0.1,0.39,0.15C333.75,60.53,337.09,62.31,336.76,67.47z"/>
</g>
</svg>
