<?xml version="1.0" encoding="utf-8"?>
<!-- Generator: Adobe Illustrator 24.1.2, SVG Export Plug-In . SVG Version: 6.00 Build 0)  -->
<svg version="1.1" id="Warstwa_3" xmlns="http://www.w3.org/2000/svg" xmlns:xlink="http://www.w3.org/1999/xlink" x="0px" y="0px"
	 viewBox="0 0 430 430" style="enable-background:new 0 0 430 430;" xml:space="preserve">
<style type="text/css">
	.st0{fill:#08A88A;}
	.st1{fill:#121331;}
	.st2{fill:none;}
	.st3{fill:#08A88A;fill-opacity:0;}
</style>
<g>
	<path class="st1" d="M212.83,384.27c-92.8,0-168.3-75.5-168.3-168.3s75.5-168.3,168.3-168.3c37.53,0,73.03,12.08,102.67,34.93
		l-7.69,9.98c-27.41-21.14-60.25-32.31-94.97-32.31c-85.85,0-155.7,69.85-155.7,155.7s69.85,155.7,155.7,155.7
		s155.7-69.85,155.7-155.7c0-33.51-10.48-65.43-30.3-92.3l10.14-7.48c21.43,29.06,32.76,63.56,32.76,99.78
		C381.13,308.77,305.63,384.27,212.83,384.27z M212.83,338.27c-67.44,0-122.3-54.86-122.3-122.3s54.86-122.3,122.3-122.3
		s122.3,54.86,122.3,122.3S280.27,338.27,212.83,338.27z M212.83,106.27c-60.49,0-109.7,49.21-109.7,109.7s49.21,109.7,109.7,109.7
		s109.7-49.21,109.7-109.7S273.32,106.27,212.83,106.27z M212.83,290.27c-40.97,0-74.3-33.33-74.3-74.3s33.33-74.3,74.3-74.3
		s74.3,33.33,74.3,74.3S253.8,290.27,212.83,290.27z M212.83,154.27c-34.02,0-61.7,27.68-61.7,61.7s27.68,61.7,61.7,61.7
		s61.7-27.68,61.7-61.7S246.86,154.27,212.83,154.27z"/>
	<path class="st1" d="M212.83,245.27c-16.16,0-29.3-13.14-29.3-29.3s13.14-29.3,29.3-29.3s29.3,13.14,29.3,29.3
		S228.99,245.27,212.83,245.27z M212.83,199.27c-9.21,0-16.7,7.49-16.7,16.7s7.49,16.7,16.7,16.7s16.7-7.49,16.7-16.7
		S222.04,199.27,212.83,199.27z"/>
	<path d="M212.83,192.97c-12.7,0-23,10.3-23,23c0,12.7,10.3,23,23,23s23-10.3,23-23C235.83,203.26,225.54,192.97,212.83,192.97z"/>
	<path class="st0" d="M214.81,223.12c-1.61,0-3.22-0.61-4.46-1.85c-2.46-2.46-2.46-6.45,0-8.91l97.36-97.36l-3.54-25.31
		c-0.27-1.96,0.39-3.93,1.79-5.33l36.85-36.79c1.69-1.69,4.19-2.27,6.46-1.51c2.27,0.76,3.91,2.74,4.23,5.11l3.21,23.27l23.37,3.45
		c2.36,0.35,4.31,2,5.06,4.26c0.75,2.26,0.15,4.75-1.53,6.43l-36.95,36.89c-1.4,1.4-3.38,2.06-5.34,1.78l-24.55-3.48l-97.51,97.51
		C218.04,222.51,216.42,223.12,214.81,223.12z M319.95,111.49l20.04,2.84l25.85-25.81l-15.64-2.31c-2.77-0.41-4.94-2.6-5.32-5.37
		l-2.13-15.41l-25.67,25.62L319.95,111.49z"/>
</g>
</svg>
