<?xml version="1.0" encoding="utf-8"?>
<!-- Generator: Adobe Illustrator 24.1.2, SVG Export Plug-In . SVG Version: 6.00 Build 0)  -->
<svg version="1.1" id="Warstwa_3" xmlns="http://www.w3.org/2000/svg" xmlns:xlink="http://www.w3.org/1999/xlink" x="0px" y="0px"
	 viewBox="0 0 430 430" style="enable-background:new 0 0 430 430;" xml:space="preserve">
<style type="text/css">
	.st0{fill:#121331;}
	.st1{fill:#08A789;}
	.st2{fill:#08A88A;}
	.st3{fill:none;stroke:#08A789;stroke-width:12;stroke-linecap:round;stroke-linejoin:round;stroke-miterlimit:10;}
</style>
<g>
	<g>
		<path class="st1" d="M214.87,301.02c-9.24,0-18.47-1.79-27.08-5.37c-2.79-1.16-5.64-1.9-8.56-2.24l-11.54-1.33
			c-6.2-0.71-10.88-5.96-10.88-12.21v-11.64c0-22.49,18.3-40.79,40.79-40.79h34.79c22.49,0,40.79,18.3,40.79,40.79v11.64
			c0,6.24-4.68,11.49-10.88,12.21l-12.17,1.41c-2.77,0.32-5.47,1.03-8.04,2.1C233.44,299.21,224.16,301.02,214.87,301.02z
			 M197.61,239.46c-15.87,0-28.79,12.91-28.79,28.79v11.64c0,0.15,0.11,0.27,0.25,0.29l11.54,1.33c4.03,0.46,7.96,1.49,11.7,3.04
			c14.41,5.99,30.83,5.97,45.14-0.01c3.61-1.51,7.41-2.5,11.3-2.95l12.17-1.41c0.14-0.02,0.25-0.14,0.25-0.28v-11.64
			c0-15.87-12.91-28.79-28.79-28.79H197.61z"/>
		<path class="st1" d="M215,214.29c-16.78,0-30.38-13.14-30.96-29.91L183.22,161c-0.29-8.48,2.79-16.5,8.68-22.6
			s13.81-9.46,22.29-9.46h1.63c8.48,0,16.39,3.36,22.29,9.46s8.97,14.13,8.68,22.6l-0.81,23.38
			C245.38,201.15,231.78,214.29,215,214.29z M214.19,140.94c-5.2,0-10.04,2.06-13.65,5.8c-3.61,3.74-5.5,8.66-5.32,13.85l0.81,23.38
			c0.36,10.27,8.69,18.32,18.97,18.32s18.62-8.05,18.97-18.32l0.81-23.38c0.18-5.19-1.71-10.11-5.32-13.85
			c-3.61-3.74-8.46-5.8-13.65-5.8H214.19z"/>
	</g>
	<path class="st0" d="M373.24,268.89c5.73-17.08,8.65-34.92,8.65-53.12c0-18.64-3.05-36.89-9.06-54.35
		c13.41-9.69,17.59-28.2,9.14-42.83c-4.37-7.56-11.41-12.97-19.85-15.23c-7.45-2-15.19-1.32-22.1,1.87
		c-24.24-27.41-56.75-46.11-92.47-53.17c-1.43-16.71-15.48-29.87-32.56-29.87s-31.13,13.16-32.56,29.87
		c-35.72,7.06-68.22,25.76-92.47,53.17c-6.92-3.19-14.66-3.87-22.1-1.87c-8.43,2.26-15.48,7.67-19.85,15.23
		c-8.44,14.63-4.26,33.14,9.14,42.83c-6.01,17.46-9.06,35.71-9.06,54.35c0,18.2,2.91,36.05,8.65,53.12
		c-13.07,9.77-17.09,28.04-8.73,42.51c4.37,7.56,11.41,12.97,19.85,15.23c2.82,0.75,5.67,1.13,8.51,1.13
		c4.32,0,8.59-0.87,12.61-2.57c24.39,28.06,57.31,47.17,93.62,54.31c2.15,15.96,15.85,28.3,32.38,28.3s30.23-12.35,32.38-28.3
		c36.3-7.15,69.23-26.25,93.62-54.31c4.02,1.7,8.29,2.57,12.61,2.57c2.84,0,5.7-0.37,8.51-1.13c8.43-2.26,15.48-7.67,19.85-15.23
		C390.33,296.93,386.32,278.66,373.24,268.89z M343.32,117.03c3.19-1.84,6.72-2.78,10.31-2.78c1.8,0,3.61,0.24,5.39,0.71
		c5.34,1.43,9.8,4.85,12.56,9.64c5.7,9.88,2.31,22.56-7.57,28.26c-9.88,5.7-22.55,2.31-28.26-7.57
		C330.05,135.41,333.45,122.73,343.32,117.03z M215,34.19c11.41,0,20.69,9.28,20.69,20.69S226.41,75.57,215,75.57
		s-20.69-9.28-20.69-20.69S203.59,34.19,215,34.19z M58.42,124.6c2.76-4.79,7.22-8.21,12.56-9.64c1.78-0.48,3.59-0.71,5.39-0.71
		c3.58,0,7.12,0.94,10.31,2.78c9.88,5.7,13.28,18.38,7.57,28.26c-5.7,9.88-18.38,13.27-28.26,7.57
		C56.11,147.15,52.71,134.48,58.42,124.6z M86.68,312.97c-4.79,2.76-10.36,3.49-15.7,2.07c-5.34-1.43-9.8-4.85-12.56-9.64
		c-5.7-9.88-2.31-22.56,7.57-28.26c9.88-5.7,22.55-2.31,28.26,7.57C99.95,294.59,96.55,307.27,86.68,312.97z M215,395.81
		c-11.41,0-20.69-9.28-20.69-20.69s9.28-20.69,20.69-20.69s20.69,9.28,20.69,20.69S226.41,395.81,215,395.81z M246.75,367.39
		c-3.48-14.3-16.39-24.96-31.75-24.96s-28.27,10.65-31.75,24.96c-32.5-6.78-62-23.91-84.14-48.88c10.49-10.18,13.17-26.57,5.54-39.8
		c-7.59-13.15-23.01-19.03-37.01-15.17c-4.99-15.38-7.52-31.42-7.52-47.78c0-16.86,2.69-33.38,7.98-49.2
		c2.7,0.7,5.45,1.05,8.18,1.05c11.3,0,22.32-5.86,28.36-16.34c7.45-12.91,5.06-28.84-4.81-39.06
		c22.15-24.63,51.54-41.52,83.81-48.16c3.98,13.56,16.53,23.5,31.36,23.5c14.83,0,27.38-9.94,31.36-23.5
		c32.27,6.64,61.66,23.53,83.81,48.16c-9.88,10.22-12.27,26.15-4.81,39.06c6.05,10.47,17.06,16.34,28.36,16.34
		c2.73,0,5.48-0.35,8.18-1.05c5.29,15.82,7.98,32.34,7.98,49.2c0,16.36-2.53,32.4-7.52,47.78c-14-3.87-29.42,2.01-37.01,15.16
		c-7.63,13.22-4.95,29.61,5.54,39.8C308.76,343.48,279.26,360.61,246.75,367.39z M371.58,305.4c-2.76,4.79-7.22,8.21-12.56,9.64
		c-5.34,1.43-10.91,0.7-15.7-2.07c-9.88-5.7-13.28-18.38-7.57-28.26c3.83-6.63,10.8-10.34,17.95-10.34c3.51,0,7.06,0.89,10.31,2.77
		C373.89,282.85,377.29,295.52,371.58,305.4z"/>
</g>
</svg>
