<svg xmlns="http://www.w3.org/2000/svg" width="500" height="500" style="width:100%;height:100%" view-box="0 0 500 500"><defs><clipPath id="c"><path d="M0 0h500v500H0z"/></clipPath><clipPath id="b"><path d="M0 0h500v500H0z"/></clipPath><filter id="a" filterUnits="objectBoundingBox" x="0%" y="0%" width="100%" height="100%"><feComponentTransfer in="SourceGraphic"><feFuncA type="table" tableValues="1.0 0.0"/></feComponentTransfer></filter><mask id="d"><g filter="url(#a)"><g clip-path="url(#b)" display="block"><g display="block"><path stroke-linecap="round" stroke-linejoin="round" fill-opacity="0" stroke="#121331" stroke-width="0" d="M325.312 124.575h-45.786"/><path fill="red" d="M-267.808-124.844h-45.786" transform="translate(593.12 249.419)"/><g><path stroke-linecap="round" stroke-linejoin="round" fill-opacity="0" stroke="#121331" stroke-width="0" d="M254.606 124.575h.078"/><path fill="red" d="M-290.74-124.844h.078" transform="translate(545.346 249.419)"/></g><g><path stroke-linecap="round" stroke-linejoin="round" fill-opacity="0" stroke="#121331" stroke-width="0" d="M341.562 159.622l-102.812.117c-6.6 0-12-5.4-12-12v-45.617c0-6.6 5.4-12 12-12l102.812-.117c6.6 0 12 5.4 12 12v45.617c0 6.6-5.4 12-12 12z"/><path fill="red" d="M50.906 34.811l-102.812.117c-6.6 0-12-5.4-12-12v-45.617c0-6.6 5.4-12 12-12l102.812-.117c6.6 0 12 5.4 12 12v45.617c0 6.6-5.4 12-12 12z" transform="translate(290.656 124.811)"/></g></g><g display="block"><path stroke-linecap="round" stroke-linejoin="round" fill-opacity="0" stroke="#121331" stroke-width="0" d="M187.312 233.075h-45.786"/><path fill="red" d="M-267.808-124.844h-45.786" transform="translate(455.12 357.919)"/><g><path stroke-linecap="round" stroke-linejoin="round" fill-opacity="0" stroke="#121331" stroke-width="0" d="M116.606 233.075h.078"/><path fill="red" d="M-290.74-124.844h.078" transform="translate(407.346 357.919)"/></g><g><path stroke-linecap="round" stroke-linejoin="round" fill-opacity="0" stroke="#121331" stroke-width="0" d="M203.562 268.122l-102.812.117c-6.6 0-12-5.4-12-12v-45.617c0-6.6 5.4-12 12-12l102.812-.117c6.6 0 12 5.4 12 12v45.617c0 6.6-5.4 12-12 12z"/><path fill="red" d="M50.906 34.811l-102.812.117c-6.6 0-12-5.4-12-12v-45.617c0-6.6 5.4-12 12-12l102.812-.117c6.6 0 12 5.4 12 12v45.617c0 6.6-5.4 12-12 12z" transform="translate(152.656 233.311)"/></g></g><g display="block"><path stroke-linecap="round" stroke-linejoin="round" fill-opacity="0" stroke="#121331" stroke-width="0" d="M186.312 358.575h-45.786"/><path fill="red" d="M-267.808-124.844h-45.786" transform="translate(454.12 483.419)"/><g><path stroke-linecap="round" stroke-linejoin="round" fill-opacity="0" stroke="#121331" stroke-width="0" d="M115.606 358.575h.078"/><path fill="red" d="M-290.74-124.844h.078" transform="translate(406.346 483.419)"/></g><g><path stroke-linecap="round" stroke-linejoin="round" fill-opacity="0" stroke="#121331" stroke-width="0" d="M202.562 393.622l-102.812.117c-6.6 0-12-5.4-12-12v-45.617c0-6.6 5.4-12 12-12l102.812-.117c6.6 0 12 5.4 12 12v45.617c0 6.6-5.4 12-12 12z"/><path fill="red" d="M50.906 34.811l-102.812.117c-6.6 0-12-5.4-12-12v-45.617c0-6.6 5.4-12 12-12l102.812-.117c6.6 0 12 5.4 12 12v45.617c0 6.6-5.4 12-12 12z" transform="translate(151.656 358.811)"/></g></g><g display="block"><path stroke-linecap="round" stroke-linejoin="round" fill-opacity="0" stroke="#08A88A" stroke-width="0" d="M302.137 358.43c0-28.75 23.306-52.056 52.056-52.056 28.75 0 52.056 23.306 52.056 52.056 0 28.75-23.306 52.056-52.056 52.056-28.75 0-52.056-23.306-52.056-52.056z"/><path fill="red" d="M-52.056 0c0-28.75 23.306-52.056 52.056-52.056C28.75-52.056 52.056-28.75 52.056 0 52.056 28.75 28.75 52.056 0 52.056-28.75 52.056-52.056 28.75-52.056 0z" transform="translate(354.193 358.43)"/></g></g></g></mask></defs><g clip-path="url(#c)"><g mask="url(#d)" display="block"><path stroke-linecap="round" stroke-linejoin="round" stroke="#08A88A" stroke-width="12.04" d="M356.75 358.433h-203.8v-124.48h106.84c17.4 0 31.51-14.11 31.51-31.5v-77.85" fill="none"/></g><g display="block"><path stroke-linecap="round" stroke-linejoin="round" stroke="#121331" stroke-width="12.04" d="M325.312 124.575h-45.786M254.606 124.575h.078" fill="none"/><g><path stroke-linecap="round" stroke-linejoin="round" stroke="#121331" stroke-width="12.04" d="M341.562 159.622l-102.812.117c-6.6 0-12-5.4-12-12v-45.617c0-6.6 5.4-12 12-12l102.812-.117c6.6 0 12 5.4 12 12v45.617c0 6.6-5.4 12-12 12z" fill="none"/></g></g><g display="block"><path stroke-linecap="round" stroke-linejoin="round" stroke="#121331" stroke-width="12.04" d="M187.312 233.075h-45.786M116.606 233.075h.078" fill="none"/><g><path stroke-linecap="round" stroke-linejoin="round" stroke="#121331" stroke-width="12.04" d="M203.562 268.122l-102.812.117c-6.6 0-12-5.4-12-12v-45.617c0-6.6 5.4-12 12-12l102.812-.117c6.6 0 12 5.4 12 12v45.617c0 6.6-5.4 12-12 12z" fill="none"/></g></g><g display="block"><path stroke-linecap="round" stroke-linejoin="round" stroke="#121331" stroke-width="12.04" d="M186.312 358.575h-45.786M115.606 358.575h.078" fill="none"/><g><path stroke-linecap="round" stroke-linejoin="round" stroke="#121331" stroke-width="12.04" d="M202.562 393.622l-102.812.117c-6.6 0-12-5.4-12-12v-45.617c0-6.6 5.4-12 12-12l102.812-.117c6.6 0 12 5.4 12 12v45.617c0 6.6-5.4 12-12 12z" fill="none"/></g></g><g display="block"><path stroke-linecap="round" stroke-linejoin="round" stroke="#08A88A" stroke-width="12.04" d="M302.137 358.43c0-28.75 23.306-52.056 52.056-52.056 28.75 0 52.056 23.306 52.056 52.056 0 28.75-23.306 52.056-52.056 52.056-28.75 0-52.056-23.306-52.056-52.056z" fill="none"/><path stroke-linecap="round" stroke-linejoin="round" stroke="#121331" stroke-width="12.04" d="M334.223 352.345l18.87 18.87 56.57-56.57" fill="none"/></g></g></svg>