<?xml version="1.0" encoding="utf-8"?>
<!-- Generator: Adobe Illustrator 24.1.2, SVG Export Plug-In . SVG Version: 6.00 Build 0)  -->
<svg version="1.1" id="Warstwa_3" xmlns="http://www.w3.org/2000/svg" xmlns:xlink="http://www.w3.org/1999/xlink" x="0px" y="0px"
	 viewBox="0 0 430 430" style="enable-background:new 0 0 430 430;" xml:space="preserve">
<style type="text/css">
	.st0{fill:#121331;}
	.st1{fill:#08A88A;}
	.st2{fill:none;stroke:#08A88A;stroke-width:12.25;stroke-miterlimit:14;}
	.st3{fill-opacity:0;}
	.st4{fill:#131432;}
	.st5{fill:none;}
</style>
<g>
	<path class="st1" d="M291.59,319.71h-102.8c-3.58,0-6.47-2.9-6.47-6.47s2.9-6.47,6.47-6.47h102.8c3.58,0,6.47,2.9,6.47,6.47
		S295.17,319.71,291.59,319.71z"/>
	<path class="st1" d="M148.8,329.2c-1.72,0-3.36-0.68-4.58-1.9l-8.62-8.62c-2.53-2.53-2.53-6.63,0-9.16c2.53-2.53,6.63-2.53,9.16,0
		l4.04,4.04l14.41-14.41c2.53-2.53,6.63-2.53,9.16,0c2.53,2.53,2.53,6.63,0,9.16l-18.99,18.99
		C152.16,328.52,150.52,329.2,148.8,329.2z"/>
	<path class="st1" d="M291.59,267.91h-102.8c-3.58,0-6.47-2.9-6.47-6.47s2.9-6.47,6.47-6.47h102.8c3.58,0,6.47,2.9,6.47,6.47
		S295.17,267.91,291.59,267.91z"/>
	<path class="st1" d="M148.8,277.4c-1.66,0-3.31-0.63-4.58-1.9l-8.62-8.62c-2.53-2.53-2.53-6.63,0-9.16c2.53-2.53,6.63-2.53,9.16,0
		l4.04,4.04l14.41-14.41c2.53-2.53,6.63-2.53,9.16,0c2.53,2.53,2.53,6.63,0,9.16l-18.99,18.99
		C152.11,276.77,150.46,277.4,148.8,277.4z"/>
	<path class="st1" d="M291.59,216.11h-102.8c-3.58,0-6.47-2.9-6.47-6.47s2.9-6.47,6.47-6.47h102.8c3.58,0,6.47,2.9,6.47,6.47
		S295.17,216.11,291.59,216.11z"/>
	<path class="st1" d="M148.8,225.6c-1.66,0-3.31-0.63-4.58-1.9l-8.62-8.62c-2.53-2.53-2.53-6.63,0-9.16c2.53-2.53,6.63-2.53,9.16,0
		l4.04,4.04l14.41-14.41c2.53-2.53,6.63-2.53,9.16,0c2.53,2.53,2.53,6.63,0,9.16l-18.99,18.99
		C152.11,224.97,150.46,225.6,148.8,225.6z"/>
	<path class="st1" d="M291.59,164.31h-102.8c-3.58,0-6.47-2.9-6.47-6.47s2.9-6.47,6.47-6.47h102.8c3.58,0,6.47,2.9,6.47,6.47
		S295.17,164.31,291.59,164.31z"/>
	<path class="st1" d="M148.8,173.8c-1.66,0-3.31-0.63-4.58-1.9l-8.62-8.62c-2.53-2.53-2.53-6.63,0-9.16c2.53-2.53,6.63-2.53,9.16,0
		l4.04,4.04l14.41-14.41c2.53-2.53,6.63-2.53,9.16,0c2.53,2.53,2.53,6.63,0,9.16l-18.99,18.99
		C152.11,173.17,150.46,173.8,148.8,173.8z"/>
	<path class="st0" d="M322.17,382.36H107.83c-3.58,0-6.47-2.9-6.47-6.47V54.12c0-3.58,2.9-6.47,6.47-6.47h155
		c1.72,0,3.36,0.68,4.58,1.9l59.34,59.34c1.21,1.21,1.9,2.86,1.9,4.58v262.42C328.65,379.46,325.75,382.36,322.17,382.36z
		 M114.3,369.41h201.4V116.14l-55.55-55.55H114.3V369.41z"/>
	<path class="st0" d="M311.58,117.81h-48.35c-3.58,0-6.47-2.9-6.47-6.47V55.95c0-3.58,2.9-6.47,6.47-6.47s6.47,2.9,6.47,6.47v48.91
		h41.88c3.58,0,6.47,2.9,6.47,6.47S315.15,117.81,311.58,117.81z"/>
</g>
</svg>
